<svg id="svg-icon-print" class="svg-icon" viewBox="0 0 20 20">
    <path d="M17.453,12.691V7.723 M17.453,12.691V7.723 M1.719,12.691V7.723 M18.281,12.691V7.723 M12.691,12.484H7.309c-0.228,0-0.414,0.187-0.414,0.414s0.187,0.414,0.414,0.414h5.383c0.229,0,0.414-0.187,0.414-0.414S12.92,12.484,12.691,12.484M12.691,14.555H7.309c-0.228,0-0.414,0.187-0.414,0.414s0.187,0.414,0.414,0.414h5.383c0.229,0,0.414-0.187,0.414-0.414S12.92,14.555,12.691,14.555 M12.691,12.484H7.309c-0.228,0-0.414,0.187-0.414,0.414s0.187,0.414,0.414,0.414h5.383c0.229,0,0.414-0.187,0.414-0.414S12.92,12.484,12.691,12.484 M12.691,14.555H7.309c-0.228,0-0.414,0.187-0.414,0.414s0.187,0.414,0.414,0.414h5.383c0.229,0,0.414-0.187,0.414-0.414S12.92,14.555,12.691,14.555 M12.691,14.555H7.309c-0.228,0-0.414,0.187-0.414,0.414s0.187,0.414,0.414,0.414h5.383c0.229,0,0.414-0.187,0.414-0.414S12.92,14.555,12.691,14.555M12.691,12.484H7.309c-0.228,0-0.414,0.187-0.414,0.414s0.187,0.414,0.414,0.414h5.383c0.229,0,0.414-0.187,0.414-0.414S12.92,12.484,12.691,12.484 M7.309,13.312h5.383c0.229,0,0.414-0.187,0.414-0.414s-0.186-0.414-0.414-0.414H7.309c-0.228,0-0.414,0.187-0.414,0.414S7.081,13.312,7.309,13.312 M12.691,14.555H7.309c-0.228,0-0.414,0.187-0.414,0.414s0.187,0.414,0.414,0.414h5.383c0.229,0,0.414-0.187,0.414-0.414S12.92,14.555,12.691,14.555 M16.625,6.066h-1.449V3.168c0-0.228-0.186-0.414-0.414-0.414H5.238c-0.228,0-0.414,0.187-0.414,0.414v2.898H3.375c-0.913,0-1.656,0.743-1.656,1.656v4.969c0,0.913,0.743,1.656,1.656,1.656h1.449v2.484c0,0.228,0.187,0.414,0.414,0.414h9.523c0.229,0,0.414-0.187,0.414-0.414v-2.484h1.449c0.912,0,1.656-0.743,1.656-1.656V7.723C18.281,6.81,17.537,6.066,16.625,6.066 M5.652,3.582h8.695v2.484H5.652V3.582zM14.348,16.418H5.652v-4.969h8.695V16.418z M17.453,12.691c0,0.458-0.371,0.828-0.828,0.828h-1.449v-2.484c0-0.228-0.186-0.414-0.414-0.414H5.238c-0.228,0-0.414,0.186-0.414,0.414v2.484H3.375c-0.458,0-0.828-0.37-0.828-0.828V7.723c0-0.458,0.371-0.828,0.828-0.828h13.25c0.457,0,0.828,0.371,0.828,0.828V12.691z M7.309,13.312h5.383c0.229,0,0.414-0.187,0.414-0.414s-0.186-0.414-0.414-0.414H7.309c-0.228,0-0.414,0.187-0.414,0.414S7.081,13.312,7.309,13.312M7.309,15.383h5.383c0.229,0,0.414-0.187,0.414-0.414s-0.186-0.414-0.414-0.414H7.309c-0.228,0-0.414,0.187-0.414,0.414S7.081,15.383,7.309,15.383 M12.691,14.555H7.309c-0.228,0-0.414,0.187-0.414,0.414s0.187,0.414,0.414,0.414h5.383c0.229,0,0.414-0.187,0.414-0.414S12.92,14.555,12.691,14.555 M12.691,12.484H7.309c-0.228,0-0.414,0.187-0.414,0.414s0.187,0.414,0.414,0.414h5.383c0.229,0,0.414-0.187,0.414-0.414S12.92,12.484,12.691,12.484 M12.691,12.484H7.309c-0.228,0-0.414,0.187-0.414,0.414s0.187,0.414,0.414,0.414h5.383c0.229,0,0.414-0.187,0.414-0.414S12.92,12.484,12.691,12.484M12.691,14.555H7.309c-0.228,0-0.414,0.187-0.414,0.414s0.187,0.414,0.414,0.414h5.383c0.229,0,0.414-0.187,0.414-0.414S12.92,14.555,12.691,14.555"></path>
</svg>
<svg id="svg-icon-settings" class="svg-icon" viewBox="0 0 20 20">
    <path d="M6.176,7.241V6.78c0-0.221-0.181-0.402-0.402-0.402c-0.221,0-0.403,0.181-0.403,0.402v0.461C4.79,7.416,4.365,7.955,4.365,8.591c0,0.636,0.424,1.175,1.006,1.35v3.278c0,0.222,0.182,0.402,0.403,0.402c0.222,0,0.402-0.181,0.402-0.402V9.941c0.582-0.175,1.006-0.714,1.006-1.35C7.183,7.955,6.758,7.416,6.176,7.241 M5.774,9.195c-0.332,0-0.604-0.272-0.604-0.604c0-0.332,0.272-0.604,0.604-0.604c0.332,0,0.604,0.272,0.604,0.604C6.377,8.923,6.105,9.195,5.774,9.195 M10.402,10.058V6.78c0-0.221-0.181-0.402-0.402-0.402c-0.222,0-0.402,0.181-0.402,0.402v3.278c-0.582,0.175-1.006,0.714-1.006,1.35c0,0.637,0.424,1.175,1.006,1.351v0.461c0,0.222,0.181,0.402,0.402,0.402c0.221,0,0.402-0.181,0.402-0.402v-0.461c0.582-0.176,1.006-0.714,1.006-1.351C11.408,10.772,10.984,10.233,10.402,10.058M10,12.013c-0.333,0-0.604-0.272-0.604-0.604S9.667,10.805,10,10.805c0.332,0,0.604,0.271,0.604,0.604S10.332,12.013,10,12.013M14.629,8.448V6.78c0-0.221-0.182-0.402-0.403-0.402c-0.221,0-0.402,0.181-0.402,0.402v1.668c-0.581,0.175-1.006,0.714-1.006,1.35c0,0.636,0.425,1.176,1.006,1.351v2.07c0,0.222,0.182,0.402,0.402,0.402c0.222,0,0.403-0.181,0.403-0.402v-2.07c0.581-0.175,1.006-0.715,1.006-1.351C15.635,9.163,15.21,8.624,14.629,8.448 M14.226,10.402c-0.331,0-0.604-0.272-0.604-0.604c0-0.332,0.272-0.604,0.604-0.604c0.332,0,0.604,0.272,0.604,0.604C14.83,10.13,14.558,10.402,14.226,10.402 M17.647,3.962H2.353c-0.221,0-0.402,0.181-0.402,0.402v11.27c0,0.222,0.181,0.402,0.402,0.402h15.295c0.222,0,0.402-0.181,0.402-0.402V4.365C18.05,4.144,17.869,3.962,17.647,3.962 M17.245,15.232H2.755V4.768h14.49V15.232z"></path>
</svg>